# xmcd
# Track frame offsets:
# 150
# 14480
# 29327
# 42275
# 54310
# 68109
# 79554
# 89588
# 99946
# 114058
# 125299
# 137593
# 150825
# 162696
#
# Disc length: 2355 seconds
# Revision: 0
# Processed by: cddbd v1.5.1PL2 Copyright (c) Steve Scherf et al.
# Submitted via: VisiTrax 2.10.0.248 - For more info visit www.synapsa.com
#
DISCID=a309310e
DTITLE=Merle Haggard - Movin' On
DYEAR=1988
DGENRE=Country
TTITLE0=It's All In The Movies
TTITLE1=It's Not Love (But It's Not Bad)
TTITLE2=Everybody's Had The Blues
TTITLE3=If We Make It Through December
TTITLE4=Always Wanting You
TTITLE5=Carolyn
TTITLE6=Movin' On
TTITLE7=Old Man From The Mountain
TTITLE8=Daddy Frank
TTITLE9=Someday We'll Look Back
TTITLE10=The Roots Of My Raising
TTITLE11=Cherokee Maiden
TTITLE12=Gamblin' Polka dot Blues
TTITLE13=Grandma Harp
EXTD=
EXTT0=
EXTT1=
EXTT2=
EXTT3=
EXTT4=
EXTT5=
EXTT6=
EXTT7=
EXTT8=
EXTT9=
EXTT10=
EXTT11=
EXTT12=
EXTT13=
PLAYORDER=
